<svg width="211" height="64" viewBox="0 0 211 64" fill="none" xmlns="http://www.w3.org/2000/svg">
<path d="M7.70914 22.5113C7.70914 12.6016 14.8441 6.19336 25.7448 6.19336C35.1259 6.19336 42.4591 12.6677 42.7894 21.2561H32.4173C32.0209 17.6886 29.2462 15.4424 25.2162 15.4424C20.5917 15.4424 17.9491 17.4243 17.9491 20.9918C17.9491 23.7665 19.4686 25.4181 22.8379 26.4091L29.7747 28.4571C36.9757 30.6372 40.4111 34.6672 40.4111 41.0755C40.4111 50.5887 33.2101 56.8649 22.1773 56.8649C11.5409 56.8649 4.67017 51.1173 4.33984 41.8022H14.712C14.9102 45.4357 17.8831 47.6158 22.6397 47.6158C27.3964 47.6158 30.2372 45.5678 30.2372 42.1325C30.2372 39.6881 29.1141 38.4989 26.009 37.574L18.874 35.526C11.7391 33.478 7.70914 28.7874 7.70914 22.5113Z" fill="#FF7037"/>
<path d="M54.5293 17.6886C51.7546 17.6886 49.7727 15.6406 49.7727 12.9319C49.7727 9.49658 52.8777 6.39155 56.3791 6.39155C59.1538 6.39155 61.1358 8.43955 61.1358 11.1482C61.1358 14.5175 57.9647 17.6886 54.5293 17.6886ZM43.6287 56.006L48.8478 22.9738H58.6914L53.4723 56.006H43.6287Z" fill="#FF7037"/>
<path d="M77.0356 56.006H66.8617V31.43H60.5856V22.9738H66.8617V12.7337H77.0356V22.9738H83.3118V31.43H77.0356V56.006Z" fill="white"/>
<path d="M102.52 56.006H92.3456V31.43H86.0695V22.9738H92.3456V12.7337H102.52V22.9738H108.796V31.43H102.52V56.006Z" fill="white"/>
<path d="M128.372 56.8649C118.397 56.8649 111.262 49.5978 111.262 39.4238C111.262 29.1178 118.199 21.9167 128.174 21.9167C138.546 21.9167 145.021 28.7214 145.021 39.4899V42.0664L121.039 42.1986C121.634 46.5588 124.078 48.6068 128.571 48.6068C132.402 48.6068 135.111 47.2195 135.838 44.8411H145.153C143.964 52.1743 137.423 56.8649 128.372 56.8649ZM128.24 30.1748C124.21 30.1748 121.964 31.9585 121.171 35.9224H134.913C134.913 32.421 132.336 30.1748 128.24 30.1748Z" fill="white"/>
<path d="M173.772 22.9738V32.5531H170.535C164.721 32.5531 161.219 35.1296 161.219 41.67V56.006H151.046V23.0398H160.625L161.153 27.9286C162.541 24.6914 165.448 22.5113 169.874 22.5113C171.063 22.5113 172.384 22.6434 173.772 22.9738Z" fill="white"/>
<path d="M193.244 6.19336L196.827 12.6796L204.005 11.5091L201.295 18.4268L206.663 23.4535L199.7 25.5934L199.216 33.0321L193.244 28.7829L187.271 33.0321L186.787 25.5934L179.824 23.4535L185.192 18.4268L182.482 11.5091L189.66 12.6796L193.244 6.19336Z" fill="#1CCD83"/>
</svg>
