<svg width="20" height="12" viewBox="0 0 20 12" fill="currentColor" xmlns="http://www.w3.org/2000/svg">
<path d="M1.71023 10.79C1.61513 10.699 1.50298 10.6276 1.38023 10.58C1.13677 10.48 0.863694 10.48 0.620232 10.58C0.497481 10.6276 0.385336 10.699 0.290233 10.79C0.199192 10.8851 0.127827 10.9972 0.0802325 11.12C0.00365307 11.3021 -0.0172696 11.5028 0.0201045 11.6968C0.0574787 11.8908 0.151475 12.0694 0.290233 12.21C0.387433 12.2983 0.499048 12.3694 0.620232 12.42C0.739933 12.4729 0.869362 12.5002 1.00023 12.5002C1.1311 12.5002 1.26053 12.4729 1.38023 12.42C1.50142 12.3694 1.61303 12.2983 1.71023 12.21C1.84899 12.0694 1.94299 11.8908 1.98036 11.6968C2.01773 11.5028 1.99681 11.3021 1.92023 11.12C1.87264 10.9972 1.80127 10.8851 1.71023 10.79ZM5.00023 2.5H19.0002C19.2654 2.5 19.5198 2.39464 19.7073 2.20711C19.8949 2.01957 20.0002 1.76522 20.0002 1.5C20.0002 1.23478 19.8949 0.98043 19.7073 0.792893C19.5198 0.605357 19.2654 0.5 19.0002 0.5H5.00023C4.73502 0.5 4.48066 0.605357 4.29313 0.792893C4.10559 0.98043 4.00023 1.23478 4.00023 1.5C4.00023 1.76522 4.10559 2.01957 4.29313 2.20711C4.48066 2.39464 4.73502 2.5 5.00023 2.5ZM1.71023 5.79C1.56961 5.65124 1.39104 5.55725 1.19705 5.51987C1.00306 5.4825 0.802343 5.50342 0.620232 5.58C0.499048 5.63064 0.387433 5.70167 0.290233 5.79C0.199192 5.8851 0.127827 5.99725 0.0802325 6.12C0.0273273 6.2397 0 6.36913 0 6.5C0 6.63087 0.0273273 6.7603 0.0802325 6.88C0.130874 7.00118 0.201902 7.1128 0.290233 7.21C0.387433 7.29833 0.499048 7.36936 0.620232 7.42C0.739933 7.47291 0.869362 7.50023 1.00023 7.50023C1.1311 7.50023 1.26053 7.47291 1.38023 7.42C1.50142 7.36936 1.61303 7.29833 1.71023 7.21C1.79856 7.1128 1.86959 7.00118 1.92023 6.88C1.97314 6.7603 2.00047 6.63087 2.00047 6.5C2.00047 6.36913 1.97314 6.2397 1.92023 6.12C1.87264 5.99725 1.80127 5.8851 1.71023 5.79ZM19.0002 5.5H5.00023C4.73502 5.5 4.48066 5.60536 4.29313 5.79289C4.10559 5.98043 4.00023 6.23478 4.00023 6.5C4.00023 6.76522 4.10559 7.01957 4.29313 7.20711C4.48066 7.39464 4.73502 7.5 5.00023 7.5H19.0002C19.2654 7.5 19.5198 7.39464 19.7073 7.20711C19.8949 7.01957 20.0002 6.76522 20.0002 6.5C20.0002 6.23478 19.8949 5.98043 19.7073 5.79289C19.5198 5.60536 19.2654 5.5 19.0002 5.5ZM1.71023 0.79C1.61513 0.698959 1.50298 0.627594 1.38023 0.58C1.19812 0.50342 0.997409 0.482498 0.803419 0.519872C0.609429 0.557246 0.430856 0.651242 0.290233 0.79C0.201902 0.887201 0.130874 0.998815 0.0802325 1.12C0.0273273 1.2397 0 1.36913 0 1.5C0 1.63087 0.0273273 1.7603 0.0802325 1.88C0.130874 2.00119 0.201902 2.1128 0.290233 2.21C0.387433 2.29833 0.499048 2.36936 0.620232 2.42C0.802343 2.49658 1.00306 2.5175 1.19705 2.48013C1.39104 2.44275 1.56961 2.34876 1.71023 2.21C1.79856 2.1128 1.86959 2.00119 1.92023 1.88C1.97314 1.7603 2.00047 1.63087 2.00047 1.5C2.00047 1.36913 1.97314 1.2397 1.92023 1.12C1.86959 0.998815 1.79856 0.887201 1.71023 0.79ZM19.0002 10.5H5.00023C4.73502 10.5 4.48066 10.6054 4.29313 10.7929C4.10559 10.9804 4.00023 11.2348 4.00023 11.5C4.00023 11.7652 4.10559 12.0196 4.29313 12.2071C4.48066 12.3946 4.73502 12.5 5.00023 12.5H19.0002C19.2654 12.5 19.5198 12.3946 19.7073 12.2071C19.8949 12.0196 20.0002 11.7652 20.0002 11.5C20.0002 11.2348 19.8949 10.9804 19.7073 10.7929C19.5198 10.6054 19.2654 10.5 19.0002 10.5Z" fill="#AEB1C4"/>
</svg>
