<svg width="60" height="60" viewBox="0 0 60 60" fill="none" xmlns="http://www.w3.org/2000/svg">
<path d="M30 5C25.0555 5 20.222 6.46622 16.1108 9.21326C11.9995 11.9603 8.79521 15.8648 6.90302 20.4329C5.01083 25.0011 4.51575 30.0277 5.48038 34.8773C6.44501 39.7268 8.82603 44.1814 12.3223 47.6777C15.8187 51.174 20.2732 53.555 25.1228 54.5196C29.9723 55.4843 34.9989 54.9892 39.5671 53.097C44.1353 51.2048 48.0397 48.0005 50.7867 43.8893C53.5338 39.778 55 34.9445 55 30C55 26.717 54.3534 23.4661 53.097 20.4329C51.8406 17.3998 49.9991 14.6438 47.6777 12.3223C45.3562 10.0009 42.6002 8.15938 39.5671 6.90301C36.534 5.64664 33.2831 5 30 5ZM30 50C26.0444 50 22.1776 48.827 18.8886 46.6294C15.5996 44.4318 13.0362 41.3082 11.5224 37.6537C10.0087 33.9991 9.6126 29.9778 10.3843 26.0982C11.156 22.2186 13.0608 18.6549 15.8579 15.8579C18.6549 13.0608 22.2186 11.156 26.0982 10.3843C29.9778 9.61259 33.9992 10.0087 37.6537 11.5224C41.3082 13.0362 44.4318 15.5996 46.6294 18.8886C48.827 22.1776 50 26.0444 50 30C50 35.3043 47.8929 40.3914 44.1421 44.1421C40.3914 47.8929 35.3043 50 30 50ZM40 27.5H32.5V20C32.5 19.337 32.2366 18.7011 31.7678 18.2322C31.2989 17.7634 30.6631 17.5 30 17.5C29.337 17.5 28.7011 17.7634 28.2322 18.2322C27.7634 18.7011 27.5 19.337 27.5 20V27.5H20C19.337 27.5 18.7011 27.7634 18.2322 28.2322C17.7634 28.7011 17.5 29.337 17.5 30C17.5 30.663 17.7634 31.2989 18.2322 31.7678C18.7011 32.2366 19.337 32.5 20 32.5H27.5V40C27.5 40.663 27.7634 41.2989 28.2322 41.7678C28.7011 42.2366 29.337 42.5 30 42.5C30.6631 42.5 31.2989 42.2366 31.7678 41.7678C32.2366 41.2989 32.5 40.663 32.5 40V32.5H40C40.6631 32.5 41.2989 32.2366 41.7678 31.7678C42.2366 31.2989 42.5 30.663 42.5 30C42.5 29.337 42.2366 28.7011 41.7678 28.2322C41.2989 27.7634 40.6631 27.5 40 27.5Z" fill="#FF7037"/>
</svg>
