<svg width="197" height="205" viewBox="0 0 197 205" fill="none" xmlns="http://www.w3.org/2000/svg">
<path d="M190.319 154.588C190.253 154.537 190.174 154.51 190.102 154.47C199.81 141.045 195.255 127.92 186.956 121.296C181.542 116.974 174.618 115.71 169.264 116.546C167.308 111.475 162.755 106.09 156.318 103.546C146.451 99.6462 132.846 102.25 126.114 117.4C126.043 117.358 125.98 117.302 125.903 117.271C120.029 114.866 108.254 116.237 102.53 125.961C94.0805 140.313 101.618 150.718 101.056 160.309C100.059 177.311 107.811 187.756 123.136 196.353L123.451 196.535C138.533 205.554 151.423 207.069 165.599 197.701C173.595 192.417 186.344 193.765 194.506 179.246C200.036 169.409 195.331 158.492 190.32 154.589L190.319 154.588Z" fill="#FA8AC0"/>
<path d="M123.475 151.464C129.242 149.957 132.414 143.034 130.56 136.002C128.706 128.97 122.528 124.491 116.761 125.999C110.993 127.506 107.821 134.429 109.675 141.461C111.529 148.493 117.708 152.972 123.475 151.464Z" fill="white"/>
<path d="M145.336 137.833C151.193 138.984 157.056 134.137 158.431 127.006C159.807 119.875 156.173 113.161 150.316 112.009C144.459 110.857 138.596 115.704 137.221 122.835C135.845 129.966 139.479 136.681 145.336 137.833Z" fill="white"/>
<path d="M177.551 180.798C184.547 178.893 188.936 172.674 187.353 166.909C185.771 161.143 178.816 158.014 171.82 159.918C164.824 161.823 160.435 168.042 162.018 173.807C163.6 179.573 170.555 182.702 177.551 180.798Z" fill="white"/>
<path d="M179.856 147.531C185.323 142.771 186.575 135.252 182.652 130.738C178.73 126.224 171.118 126.424 165.651 131.184C160.184 135.945 158.933 143.464 162.855 147.978C166.778 152.492 174.389 152.292 179.856 147.531Z" fill="white"/>
<path d="M158.452 179.392C159.424 173.911 156.675 171.249 156.578 164.019C156.517 159.542 160.437 149.734 152.755 145.236C145.033 140.809 138.526 149.12 134.633 151.306C128.345 154.836 124.672 153.778 120.428 157.363C118.096 159.333 117.583 161.986 117.627 164.288C117.702 168.264 121.683 172.988 128.31 174.489C131.574 175.228 134.218 176.619 134.584 176.817C134.939 177.037 137.461 178.639 139.73 181.105C144.34 186.114 150.406 187.211 153.876 185.289C155.885 184.175 157.918 182.403 158.452 179.392Z" fill="white"/>
<path d="M0 82.9283C5.2455e-07 60.9344 8.73705 39.8412 24.2891 24.2892C39.8412 8.73711 60.9343 2.73548e-05 82.9282 0C104.922 -2.73547e-05 126.015 8.737 141.567 24.289C157.119 39.8411 165.857 60.9342 165.857 82.9281L109.369 82.9282C109.369 75.9156 106.584 69.1902 101.625 64.2316C96.6663 59.2729 89.9409 56.4872 82.9283 56.4872C75.9157 56.4872 69.1903 59.2729 64.2316 64.2316C59.2729 69.1903 56.4872 75.9157 56.4872 82.9283H0Z" fill="#1CCD83"/>
</svg>
