<svg width="388" height="300" viewBox="0 0 388 300" fill="none" xmlns="http://www.w3.org/2000/svg">
<g clip-path="url(#clip0_731_15156)">
<path d="M194.319 126.074L233.39 195.019L311.658 182.577L282.11 256.107L340.638 309.536L264.722 332.283L259.437 411.35L194.319 366.184L129.201 411.35L123.916 332.283L48 309.536L106.528 256.107L76.9803 182.577L155.248 195.019L194.319 126.074Z" fill="#1CCD83"/>
<path d="M214 35.4586C224.041 25.4179 235.961 17.4532 249.08 12.0192C262.199 6.58526 276.259 3.78843 290.459 3.78843C304.659 3.78843 318.719 6.58526 331.838 12.0193C344.957 17.4532 356.877 25.4179 366.918 35.4586L316.595 85.7817C313.162 82.3495 309.088 79.6269 304.603 77.7694C300.119 75.912 295.313 74.9559 290.459 74.9559C285.605 74.9559 280.799 75.912 276.314 77.7694C271.83 79.6269 267.756 82.3495 264.323 85.7816L214 35.4586Z" fill="#76D0FC"/>
</g>
<defs>
<clipPath id="clip0_731_15156">
<rect width="388" height="300" fill="white"/>
</clipPath>
</defs>
</svg>
