<svg width="21" height="18" viewBox="0 0 21 18" fill="none" xmlns="http://www.w3.org/2000/svg">
<path d="M17.5 4H16.5V3C16.5 2.20435 16.1839 1.44129 15.6213 0.87868C15.0587 0.316071 14.2956 0 13.5 0H3.5C2.70435 0 1.94129 0.316071 1.37868 0.87868C0.816071 1.44129 0.5 2.20435 0.5 3V15C0.5 15.7956 0.816071 16.5587 1.37868 17.1213C1.94129 17.6839 2.70435 18 3.5 18H17.5C18.2956 18 19.0587 17.6839 19.6213 17.1213C20.1839 16.5587 20.5 15.7956 20.5 15V7C20.5 6.20435 20.1839 5.44129 19.6213 4.87868C19.0587 4.31607 18.2956 4 17.5 4ZM3.5 2H13.5C13.7652 2 14.0196 2.10536 14.2071 2.29289C14.3946 2.48043 14.5 2.73478 14.5 3V4H3.5C3.23478 4 2.98043 3.89464 2.79289 3.70711C2.60536 3.51957 2.5 3.26522 2.5 3C2.5 2.73478 2.60536 2.48043 2.79289 2.29289C2.98043 2.10536 3.23478 2 3.5 2ZM18.5 12H17.5C17.2348 12 16.9804 11.8946 16.7929 11.7071C16.6054 11.5196 16.5 11.2652 16.5 11C16.5 10.7348 16.6054 10.4804 16.7929 10.2929C16.9804 10.1054 17.2348 10 17.5 10H18.5V12ZM18.5 8H17.5C16.7044 8 15.9413 8.31607 15.3787 8.87868C14.8161 9.44129 14.5 10.2044 14.5 11C14.5 11.7956 14.8161 12.5587 15.3787 13.1213C15.9413 13.6839 16.7044 14 17.5 14H18.5V15C18.5 15.2652 18.3946 15.5196 18.2071 15.7071C18.0196 15.8946 17.7652 16 17.5 16H3.5C3.23478 16 2.98043 15.8946 2.79289 15.7071C2.60536 15.5196 2.5 15.2652 2.5 15V5.83C2.82127 5.94302 3.15943 6.00051 3.5 6H17.5C17.7652 6 18.0196 6.10536 18.2071 6.29289C18.3946 6.48043 18.5 6.73478 18.5 7V8Z" fill="#7B7E8F"/>
</svg>
