<svg width="102" height="105" viewBox="0 0 102 105" fill="none" xmlns="http://www.w3.org/2000/svg">
<path d="M95.0856 54.1445C95.0176 54.0919 94.9352 54.0641 94.8608 54.0225C104.914 40.2197 100.197 26.7247 91.6032 19.9138C85.9963 15.47 78.8262 14.1699 73.2822 15.0297C71.2565 9.81558 66.5424 4.2795 59.8763 1.66345C49.6591 -2.34638 35.5705 0.331036 28.5991 15.9079C28.5258 15.8645 28.4604 15.8074 28.3806 15.7749C22.2976 13.3024 10.1049 14.7117 4.17707 24.7098C-4.57248 39.4667 3.2329 50.165 2.65059 60.0263C1.61848 77.5079 9.64627 88.2474 25.5156 97.0862L25.8415 97.2737C41.4591 106.547 54.8079 108.104 69.4871 98.4727C77.7675 93.0397 90.9694 94.4254 99.4215 79.4974C105.148 69.3835 100.276 58.1579 95.0866 54.1451L95.0856 54.1445Z" fill="#FA8AC0"/>
<path d="M25.8664 50.9325C31.8386 49.3825 35.1236 42.2645 33.2036 35.0341C31.2837 27.8037 24.8858 23.1988 18.9136 24.7489C12.9415 26.2989 9.65647 33.4169 11.5764 40.6473C13.4964 47.8777 19.8942 52.4826 25.8664 50.9325Z" fill="white"/>
<path d="M48.5041 36.9165C54.5693 38.1007 60.6407 33.1168 62.0649 25.7847C63.4891 18.4527 59.7268 11.5489 53.6615 10.3648C47.5963 9.18062 41.5249 14.1645 40.1007 21.4966C38.6765 28.8286 42.4388 35.7324 48.5041 36.9165Z" fill="white"/>
<path d="M81.8639 81.0925C89.1087 79.1339 93.6533 72.7405 92.0145 66.8124C90.3758 60.8843 83.1742 57.6664 75.9295 59.6249C68.6847 61.5835 64.1401 67.977 65.7789 73.9051C67.4177 79.8332 74.6192 83.0511 81.8639 81.0925Z" fill="white"/>
<path d="M84.2509 46.8886C89.9119 41.9937 91.2083 34.2631 87.1464 29.6218C83.0845 24.9805 75.2024 25.186 69.5414 30.0809C63.8803 34.9758 62.584 42.7064 66.6459 47.3478C70.7078 51.9891 78.5898 51.7835 84.2509 46.8886Z" fill="white"/>
<path d="M62.0862 79.6477C63.0925 74.012 60.246 71.2747 60.1454 63.8413C60.083 59.2383 64.1415 49.1536 56.1867 44.5288C48.1908 39.977 41.4528 48.5216 37.4206 50.7692C30.909 54.3992 27.1065 53.3117 22.711 56.9979C20.2967 59.0225 19.7646 61.751 19.8104 64.1177C19.8883 68.2053 24.0108 73.0625 30.8735 74.6062C34.2537 75.3664 36.9908 76.7966 37.3702 77.0002C37.7379 77.2263 40.3496 78.8729 42.6995 81.4089C47.4726 86.5585 53.7549 87.6864 57.3478 85.7104C59.4284 84.5656 61.5335 82.7432 62.0862 79.6477Z" fill="white"/>
</svg>
