<svg width="24" height="24" viewBox="0 0 24 24" fill="none" xmlns="http://www.w3.org/2000/svg">
<path d="M20.3393 9.32013L6.33927 2.32013C5.78676 2.04514 5.16289 1.94724 4.55271 2.03978C3.94252 2.13232 3.37573 2.4108 2.9296 2.83724C2.48347 3.26369 2.17972 3.81735 2.05976 4.42274C1.9398 5.02813 2.00947 5.65578 2.25927 6.22013L4.65927 11.5901C4.71373 11.72 4.74177 11.8593 4.74177 12.0001C4.74177 12.1409 4.71373 12.2803 4.65927 12.4101L2.25927 17.7801C2.05597 18.2368 1.97003 18.7371 2.00925 19.2355C2.04847 19.7339 2.21161 20.2145 2.48385 20.6338C2.75609 21.0531 3.1288 21.3977 3.56809 21.6363C4.00739 21.875 4.49935 22 4.99927 22.0001C5.4675 21.9955 5.92876 21.8861 6.34927 21.6801L20.3493 14.6801C20.8459 14.4303 21.2633 14.0474 21.555 13.5742C21.8466 13.101 22.0011 12.556 22.0011 12.0001C22.0011 11.4442 21.8466 10.8993 21.555 10.4261C21.2633 9.95282 20.8459 9.56994 20.3493 9.32013H20.3393ZM19.4493 12.8901L5.44927 19.8901C5.26543 19.9784 5.059 20.0084 4.85766 19.976C4.65631 19.9436 4.46968 19.8504 4.32278 19.709C4.17589 19.5675 4.07575 19.3845 4.0358 19.1846C3.99585 18.9846 4.018 18.7772 4.09927 18.5901L6.48927 13.2201C6.52021 13.1484 6.54692 13.075 6.56927 13.0001H13.4593C13.7245 13.0001 13.9788 12.8948 14.1664 12.7072C14.3539 12.5197 14.4593 12.2653 14.4593 12.0001C14.4593 11.7349 14.3539 11.4806 14.1664 11.293C13.9788 11.1055 13.7245 11.0001 13.4593 11.0001H6.56927C6.54692 10.9253 6.52021 10.8518 6.48927 10.7801L4.09927 5.41013C4.018 5.22309 3.99585 5.01568 4.0358 4.8157C4.07575 4.61572 4.17589 4.43273 4.32278 4.29128C4.46968 4.14982 4.65631 4.05666 4.85766 4.02428C5.059 3.9919 5.26543 4.02186 5.44927 4.11013L19.4493 11.1101C19.6131 11.194 19.7505 11.3215 19.8465 11.4786C19.9425 11.6356 19.9933 11.8161 19.9933 12.0001C19.9933 12.1842 19.9425 12.3647 19.8465 12.5217C19.7505 12.6787 19.6131 12.8062 19.4493 12.8901Z" fill="white"/>
</svg>
