<svg width="16" height="16" viewBox="0 0 16 16" fill="currentColor" xmlns="http://www.w3.org/2000/svg">
<path d="M9.41189 8.00019L15.7119 1.71019C15.9002 1.52188 16.006 1.26649 16.006 1.00019C16.006 0.733884 15.9002 0.478489 15.7119 0.290185C15.5236 0.101882 15.2682 -0.00390625 15.0019 -0.00390625C14.7356 -0.00390625 14.4802 0.101882 14.2919 0.290185L8.00189 6.59019L1.71189 0.290185C1.52359 0.101882 1.26819 -0.00390601 1.00189 -0.00390601C0.73559 -0.00390601 0.480196 0.101882 0.291892 0.290185C0.103588 0.478489 -0.00219941 0.733884 -0.00219941 1.00019C-0.00219941 1.26649 0.103588 1.52188 0.291892 1.71019L6.59189 8.00019L0.291892 14.2902C0.198164 14.3831 0.12377 14.4937 0.0730009 14.6156C0.0222322 14.7375 -0.00390625 14.8682 -0.00390625 15.0002C-0.00390625 15.1322 0.0222322 15.2629 0.0730009 15.3848C0.12377 15.5066 0.198164 15.6172 0.291892 15.7102C0.384855 15.8039 0.495456 15.8783 0.617315 15.9291C0.739175 15.9798 0.86988 16.006 1.00189 16.006C1.1339 16.006 1.26461 15.9798 1.38647 15.9291C1.50833 15.8783 1.61893 15.8039 1.71189 15.7102L8.00189 9.41018L14.2919 15.7102C14.3849 15.8039 14.4955 15.8783 14.6173 15.9291C14.7392 15.9798 14.8699 16.006 15.0019 16.006C15.1339 16.006 15.2646 15.9798 15.3865 15.9291C15.5083 15.8783 15.6189 15.8039 15.7119 15.7102C15.8056 15.6172 15.88 15.5066 15.9308 15.3848C15.9816 15.2629 16.0077 15.1322 16.0077 15.0002C16.0077 14.8682 15.9816 14.7375 15.9308 14.6156C15.88 14.4937 15.8056 14.3831 15.7119 14.2902L9.41189 8.00019Z" fill="#3A3B46"/>
</svg>
