<svg width="21" height="18" viewBox="0 0 21 18" fill="none" xmlns="http://www.w3.org/2000/svg">
<path d="M20.0362 9.93665C20.486 9.93665 20.8507 9.57201 20.8507 9.12217V6.1086C20.8507 4.53673 19.5719 3.25792 18 3.25792H17.5928V2.85068C17.5928 1.27881 16.3139 0 14.7421 0H2.80995C1.26053 0 0 1.26053 0 2.80995V11.8914C0 13.4633 1.27881 14.7421 2.85068 14.7421H3.25792V15.1493C3.25792 16.7212 4.53673 18 6.1086 18H18.0069C19.575 18 20.8507 16.7243 20.8507 15.156L20.8501 13.2949C20.8501 13.1018 20.7814 12.9151 20.6565 12.7679L16.8014 8.22844C16.6461 8.04559 16.42 7.94085 16.1783 7.94118C15.9384 7.94187 15.7111 8.0482 15.5568 8.23191L11.8584 12.6361L10.1205 10.5193C9.96764 10.3331 9.74012 10.2242 9.4992 10.2217C9.25733 10.2199 9.02859 10.3237 8.872 10.5068L4.887 15.1673C4.88692 15.1613 4.88688 15.1553 4.88688 15.1493V6.06787C4.88688 5.4167 5.41666 4.88688 6.06787 4.88688H18C18.6737 4.88688 19.2217 5.43494 19.2217 6.1086V9.12217C19.2217 9.57201 19.5864 9.93665 20.0362 9.93665ZM9.47834 12.3043L11.2219 14.4279C11.3756 14.6151 11.6046 14.7242 11.8469 14.7256C12.0891 14.7254 12.3193 14.6204 12.4751 14.4349L16.184 10.018L19.2212 13.5944L19.2217 15.1562C19.2217 15.8261 18.6768 16.371 18.0069 16.371H6.1086C6.07366 16.371 6.039 16.3696 6.00479 16.3667L9.47834 12.3043ZM3.25792 6.06787V13.1131H2.85068C2.17702 13.1131 1.62896 12.5651 1.62896 11.8914V2.80995C1.62896 2.15878 2.15874 1.62896 2.80995 1.62896H14.7421C15.4157 1.62896 15.9638 2.17702 15.9638 2.85068V3.25792H6.06787C4.51845 3.25792 3.25792 4.51845 3.25792 6.06787ZM8.30769 6.63801C8.86997 6.63801 9.32579 7.09383 9.32579 7.65611C9.32579 8.21838 8.86997 8.67421 8.30769 8.67421C7.74542 8.67421 7.28959 8.21838 7.28959 7.65611C7.28959 7.09383 7.74542 6.63801 8.30769 6.63801Z" fill="#DCDFED"/>
</svg>
