<svg width="132" height="40" viewBox="0 0 132 40" fill="none" xmlns="http://www.w3.org/2000/svg">
<path d="M4.68784 14.0696C4.68784 7.87601 9.14719 3.87085 15.9601 3.87085C21.8233 3.87085 26.4065 7.9173 26.613 13.285H20.1304C19.8827 11.0554 18.1485 9.65149 15.6298 9.65149C12.7395 9.65149 11.0878 10.8902 11.0878 13.1199C11.0878 14.8541 12.0375 15.8863 14.1433 16.5057L18.4788 17.7857C22.9795 19.1483 25.1265 21.667 25.1265 25.6721C25.1265 31.6179 20.6259 35.5405 13.7304 35.5405C7.08268 35.5405 2.78848 31.9483 2.58203 26.1263H9.06461C9.18848 28.3973 11.0465 29.7599 14.0195 29.7599C16.9924 29.7599 18.7678 28.4799 18.7678 26.3328C18.7678 24.805 18.0659 24.0618 16.1253 23.4838L11.6659 22.2038C7.20655 20.9238 4.68784 17.9921 4.68784 14.0696Z" fill="#FF7037"/>
<path d="M33.9504 11.0554C32.2162 11.0554 30.9775 9.77537 30.9775 8.08246C30.9775 5.93536 32.9182 3.99472 35.1065 3.99472C36.8407 3.99472 38.0794 5.27472 38.0794 6.96762C38.0794 9.07343 36.0975 11.0554 33.9504 11.0554ZM27.1375 35.0038L30.3995 14.3586H36.5517L33.2898 35.0038H27.1375Z" fill="#FF7037"/>
<path d="M48.0169 35.0038H41.6582V19.6438H37.7356V14.3586H41.6582V7.95859H48.0169V14.3586H51.9394V19.6438H48.0169V35.0038Z" fill="black"/>
<path d="M63.9443 35.0038H57.5856V19.6438H53.663V14.3586H57.5856V7.95859H63.9443V14.3586H67.8669V19.6438H63.9443V35.0038Z" fill="black"/>
<path d="M80.1023 35.5405C73.8675 35.5405 69.4082 30.9986 69.4082 24.6399C69.4082 18.1986 73.7436 13.6979 79.9785 13.6979C86.4611 13.6979 90.5075 17.9508 90.5075 24.6812V26.2915L75.5191 26.3741C75.8907 29.0992 77.4185 30.3792 80.2262 30.3792C82.6211 30.3792 84.314 29.5121 84.7682 28.0257H90.5901C89.8469 32.6089 85.7591 35.5405 80.1023 35.5405ZM80.0198 18.8592C77.5011 18.8592 76.0972 19.9741 75.6017 22.4515H84.1901C84.1901 20.2631 82.5798 18.8592 80.0198 18.8592Z" fill="black"/>
<path d="M108.477 14.3586V20.3457H106.454C102.82 20.3457 100.632 21.956 100.632 26.0438V35.0038H94.273V14.3999H100.26L100.59 17.4554C101.458 15.4321 103.274 14.0696 106.041 14.0696C106.784 14.0696 107.61 14.1521 108.477 14.3586Z" fill="black"/>
<path d="M120.645 3.87085L122.884 7.92477L127.371 7.19318L125.677 11.5168L129.032 14.6584L124.68 15.9959L124.378 20.645L120.645 17.9893L116.912 20.645L116.609 15.9959L112.258 14.6584L115.613 11.5168L113.919 7.19318L118.405 7.92477L120.645 3.87085Z" fill="#1CCD83"/>
</svg>
