<svg width="16" height="16" viewBox="0 0 16 16" fill="none" xmlns="http://www.w3.org/2000/svg">
<path d="M8.0013 1.3335C6.58681 1.3335 5.23026 1.8954 4.23007 2.89559C3.22987 3.89579 2.66797 5.25234 2.66797 6.66683C2.66797 10.2668 7.36797 14.3335 7.56797 14.5068C7.68872 14.6101 7.8424 14.6669 8.0013 14.6669C8.1602 14.6669 8.31388 14.6101 8.43463 14.5068C8.66797 14.3335 13.3346 10.2668 13.3346 6.66683C13.3346 5.25234 12.7727 3.89579 11.7725 2.89559C10.7723 1.8954 9.41579 1.3335 8.0013 1.3335ZM8.0013 13.1002C6.5813 11.7668 4.0013 8.8935 4.0013 6.66683C4.0013 5.60596 4.42273 4.58855 5.17287 3.8384C5.92302 3.08826 6.94044 2.66683 8.0013 2.66683C9.06217 2.66683 10.0796 3.08826 10.8297 3.8384C11.5799 4.58855 12.0013 5.60596 12.0013 6.66683C12.0013 8.8935 9.4213 11.7735 8.0013 13.1002ZM8.0013 4.00016C7.47389 4.00016 6.95831 4.15656 6.51978 4.44958C6.08125 4.74259 5.73946 5.15907 5.53762 5.64634C5.33579 6.13361 5.28298 6.66979 5.38587 7.18707C5.48877 7.70435 5.74274 8.17951 6.11568 8.55245C6.48862 8.92539 6.96378 9.17936 7.48106 9.28226C7.99834 9.38515 8.53452 9.33234 9.02179 9.13051C9.50906 8.92868 9.92554 8.58688 10.2186 8.14835C10.5116 7.70982 10.668 7.19425 10.668 6.66683C10.668 5.95959 10.387 5.28131 9.88692 4.78121C9.38682 4.28111 8.70855 4.00016 8.0013 4.00016ZM8.0013 8.00016C7.73759 8.00016 7.47981 7.92196 7.26054 7.77546C7.04128 7.62895 6.87038 7.42071 6.76946 7.17707C6.66855 6.93344 6.64214 6.66535 6.69359 6.40671C6.74504 6.14807 6.87202 5.91049 7.05849 5.72402C7.24496 5.53755 7.48254 5.41056 7.74118 5.35912C7.99982 5.30767 8.26791 5.33407 8.51155 5.43499C8.75518 5.53591 8.96342 5.7068 9.10993 5.92607C9.25644 6.14533 9.33463 6.40312 9.33463 6.66683C9.33463 7.02045 9.19416 7.35959 8.94411 7.60964C8.69406 7.85969 8.35492 8.00016 8.0013 8.00016Z" fill="#AEB1C4"/>
</svg>
