<svg width="24" height="24" viewBox="0 0 24 24" fill="currentColor" xmlns="http://www.w3.org/2000/svg">
<path d="M14.2481 10.878C13.3157 9.38905 11.7276 8.5 9.99998 8.5C8.27249 8.5 6.68429 9.38905 5.75201 10.878L3.50519 14.4657C3.1324 15.0611 2.9604 15.7486 3.00767 16.454C3.05494 17.1596 3.31721 17.8166 3.76604 18.3543C4.21518 18.8919 4.80867 19.2592 5.4823 19.4168C6.15594 19.5743 6.84649 19.5071 7.47918 19.2225L7.52044 19.2037C9.1126 18.5012 10.9324 18.5075 12.5206 19.2225C12.9302 19.4068 13.3642 19.5 13.8021 19.5C14.0402 19.5 14.2797 19.4723 14.517 19.417C15.1907 19.2595 15.7841 18.8922 16.2334 18.3546C16.6824 17.8171 16.9449 17.1599 16.9923 16.4544C17.0397 15.7486 16.8677 15.0611 16.4949 14.4656L14.2481 10.878ZM15.3103 17.5465C14.7388 18.2303 13.8143 18.4465 13.0096 18.0844C12.0531 17.6538 11.0265 17.4386 9.9995 17.4386C8.97348 17.4386 7.94698 17.6536 6.99114 18.0837L6.96395 18.096C6.16542 18.4417 5.25449 18.2227 4.6893 17.5465C4.11843 16.8625 4.05345 15.8941 4.52773 15.1366L6.77471 11.5489C7.48266 10.4184 8.68828 9.74344 9.99998 9.74344C11.3117 9.74344 12.5175 10.4184 13.2256 11.5489L15.4722 15.1365C15.9467 15.8943 15.8815 16.8628 15.3103 17.5465Z" fill="#AEB1C4"/>
<path d="M3.49763 11.3405C4.12624 11.0765 4.60379 10.5227 4.84241 9.7809C5.06929 9.07506 5.05071 8.27818 4.78978 7.53689C4.52871 6.7961 4.05383 6.19137 3.45273 5.83389C2.82101 5.45853 2.12713 5.39741 1.49957 5.6619C0.237006 6.19267 -0.342386 7.89859 0.208163 9.46553C0.647949 10.7127 1.67367 11.5 2.71069 11.5C2.97548 11.5 3.24102 11.4486 3.49763 11.3405ZM1.27417 9.01686C0.949762 8.09351 1.23478 7.11131 1.90992 6.82747C2.03183 6.7761 2.16073 6.75058 2.29231 6.75058C2.4954 6.75058 2.70519 6.81122 2.90709 6.93135C3.27016 7.14707 3.56023 7.52161 3.72377 7.98573C3.88717 8.45017 3.90174 8.94046 3.76466 9.36653C3.63902 9.75701 3.39861 10.0441 3.08788 10.1746C2.41363 10.4588 1.59963 9.9394 1.27417 9.01686Z" fill="#AEB1C4"/>
<path d="M7.99984 7.5C9.65411 7.5 11 5.93009 11 4.0004C11 2.07023 9.65411 0.5 7.99984 0.5C6.34573 0.5 5 2.07023 5 4.0004C5 5.93009 6.34573 7.5 7.99984 7.5ZM7.99984 1.72578C8.99387 1.72578 9.80277 2.74622 9.80277 4.0004C9.80277 5.2541 8.99387 6.27422 7.99984 6.27422C7.00582 6.27422 6.19723 5.2541 6.19723 4.0004C6.19723 2.74622 7.00582 1.72578 7.99984 1.72578Z" fill="#AEB1C4"/>
<path d="M13.9387 8.37912C14.2117 8.46092 14.4904 8.5 14.7677 8.5C16.062 8.5 17.3233 7.64965 17.8046 6.34281C18.0818 5.59054 18.0635 4.79512 17.7533 4.10322C17.4286 3.37902 16.827 2.85327 16.059 2.62268C15.291 2.3924 14.46 2.48838 13.7196 2.89311C13.0123 3.27988 12.4703 3.90704 12.1936 4.65931C11.6094 6.24623 12.3922 7.91494 13.9387 8.37912ZM13.4125 5.02495C13.5932 4.53375 13.9386 4.12902 14.3851 3.88486C14.7982 3.65895 15.2489 3.60146 15.6539 3.72294C16.0588 3.84457 16.3815 4.134 16.5627 4.53813C16.7584 4.97485 16.7668 5.48581 16.5857 5.97701C16.2248 6.95729 15.2191 7.5413 14.344 7.27887C13.4695 7.0163 13.0515 6.00523 13.4125 5.02495Z" fill="#AEB1C4"/>
<path d="M20.1082 8.98679C19.0511 8.08343 17.4697 8.47448 16.5833 9.85959C15.6978 11.2454 15.8362 13.1084 16.8917 14.0124C17.2767 14.3423 17.7315 14.5 18.197 14.5C19.0084 14.5 19.8525 14.0209 20.4166 13.1399C21.3022 11.7542 21.1639 9.89116 20.1082 8.98679ZM19.525 12.3764C19.0016 13.1937 18.1166 13.4648 17.5519 12.9809C16.9876 12.4977 16.9532 11.4396 17.4752 10.6228C17.8222 10.0806 18.329 9.77891 18.7961 9.77891C19.0324 9.77891 19.2585 9.85608 19.4485 10.0186C20.0123 10.5024 20.0466 11.5601 19.525 12.3764Z" fill="#AEB1C4"/>
</svg>
