<svg width="36" height="32" viewBox="0 0 36 32" fill="none" xmlns="http://www.w3.org/2000/svg">
<path d="M24.0789 17.6301C22.5248 15.1486 19.8781 13.6668 16.9987 13.6668C14.1195 13.6668 11.4725 15.1486 9.91871 17.6301L6.17401 23.6097C5.5527 24.6019 5.26602 25.7479 5.34481 26.9235C5.42359 28.0994 5.86072 29.1944 6.60876 30.0907C7.35734 30.9866 8.34647 31.5988 9.4692 31.8615C10.5919 32.124 11.7428 32.012 12.7973 31.5376L12.8661 31.5063C15.5197 30.3356 18.5527 30.3461 21.1997 31.5376C21.8824 31.8448 22.6057 32.0002 23.3356 32.0002C23.7324 32.0002 24.1316 31.954 24.5271 31.8618C25.6498 31.5994 26.6389 30.9872 27.3878 30.0912C28.1361 29.1953 28.5735 28.1 28.6525 26.9241C28.7316 25.7479 28.4449 24.6019 27.8236 23.6094L24.0789 17.6301ZM25.8493 28.7443C24.8967 29.8841 23.3559 30.2444 22.0147 29.6408C20.4206 28.9231 18.7095 28.5644 16.9979 28.5644C15.2878 28.5644 13.577 28.9229 11.9839 29.6397L11.9386 29.6602C10.6077 30.2363 9.08951 29.8714 8.14754 28.7443C7.19608 27.6043 7.08779 25.9904 7.87825 24.7279L11.6232 18.7483C12.8031 16.8642 14.8125 15.7392 16.9987 15.7392C19.1848 15.7392 21.1945 16.8642 22.3746 18.7483L26.1191 24.7276C26.9098 25.9906 26.8012 27.6048 25.8493 28.7443Z" fill="white"/>
<path d="M6.16142 18.401C7.20909 17.961 8.00501 17.038 8.40272 15.8017C8.78085 14.6253 8.74988 13.2971 8.315 12.0617C7.87987 10.827 7.08842 9.81911 6.08659 9.22331C5.03371 8.59772 3.87725 8.49585 2.83131 8.93666C0.727042 9.82127 -0.238613 12.6645 0.67897 15.276C1.41195 17.3547 3.12148 18.6668 4.84984 18.6668C5.29117 18.6668 5.73373 18.5812 6.16142 18.401ZM2.45566 14.5283C1.91497 12.9893 2.38999 11.3523 3.51522 10.8793C3.71842 10.7937 3.93325 10.7511 4.15255 10.7511C4.49104 10.7511 4.84068 10.8522 5.17718 11.0524C5.78229 11.4119 6.26574 12.0362 6.53831 12.8097C6.81064 13.5838 6.83492 14.4009 6.60646 15.111C6.39707 15.7618 5.99639 16.2403 5.4785 16.4579C4.35475 16.9315 2.99808 16.0658 2.45566 14.5283Z" fill="white"/>
<path d="M13.6651 12.0002C16.4222 12.0002 18.6654 9.38364 18.6654 6.16749C18.6654 2.95055 16.4222 0.333496 13.6651 0.333496C10.9082 0.333496 8.66536 2.95055 8.66536 6.16749C8.66536 9.38364 10.9082 12.0002 13.6651 12.0002ZM13.6651 2.37646C15.3218 2.37646 16.67 4.0772 16.67 6.16749C16.67 8.25699 15.3218 9.9572 13.6651 9.9572C12.0084 9.9572 10.6607 8.25699 10.6607 6.16749C10.6607 4.0772 12.0084 2.37646 13.6651 2.37646Z" fill="white"/>
<path d="M23.5633 13.4654C24.0182 13.6017 24.4827 13.6668 24.9449 13.6668C27.102 13.6668 29.2042 12.2496 30.0064 10.0715C30.4683 8.81773 30.4379 7.49203 29.9208 6.33886C29.3797 5.13187 28.377 4.25561 27.097 3.8713C25.817 3.4875 24.432 3.64746 23.198 4.32201C22.0191 4.96663 21.1158 6.0119 20.6547 7.26567C19.681 9.91054 20.9857 12.6917 23.5633 13.4654ZM22.6862 7.87508C22.9873 7.05642 23.563 6.38187 24.3072 5.97493C24.9956 5.59842 25.7468 5.50259 26.4219 5.70506C27.0967 5.90777 27.6345 6.39017 27.9365 7.06371C28.2628 7.79158 28.2767 8.64319 27.9749 9.46185C27.3734 11.0957 25.6972 12.069 24.2386 11.6316C22.7812 11.194 22.0846 9.50888 22.6862 7.87508Z" fill="white"/>
<path d="M33.8457 14.4782C32.0839 12.9726 29.4483 13.6243 27.9709 15.9328C26.495 18.2424 26.7257 21.3475 28.4849 22.8542C29.1265 23.404 29.8846 23.6668 30.6604 23.6668C32.0127 23.6668 33.4195 22.8684 34.3598 21.4001C35.8357 19.0904 35.6051 15.9854 33.8457 14.4782ZM32.8737 20.1275C32.0014 21.4897 30.5264 21.9416 29.5852 21.135C28.6447 20.3296 28.5874 18.5662 29.4574 17.2048C30.0357 16.3011 30.8804 15.7983 31.6589 15.7983C32.0526 15.7983 32.4295 15.927 32.7462 16.1978C33.6859 17.0041 33.743 18.7669 32.8737 20.1275Z" fill="white"/>
</svg>
