<svg width="255" height="371" viewBox="0 0 255 371" fill="none" xmlns="http://www.w3.org/2000/svg">
<path d="M96 155L138.457 229.92L223.508 216.399L191.4 296.302L255 354.362L172.505 379.08L166.762 465L96 415.92L25.2383 465L19.4951 379.08L-63 354.362L0.599985 296.302L-31.5081 216.399L53.543 229.92L96 155Z" fill="#1CCD83"/>
<path d="M12.665 83.085C23.5758 72.1742 36.5289 63.5192 50.7847 57.6142C65.0405 51.7093 80.3197 48.6701 95.75 48.6701C111.18 48.6701 126.46 51.7093 140.715 57.6143C154.971 63.5192 167.924 72.1742 178.835 83.0851L124.151 137.769C120.421 134.04 115.993 131.081 111.12 129.063C106.247 127.044 101.025 126.005 95.75 126.005C90.4755 126.005 85.2527 127.044 80.3797 129.063C75.5067 131.081 71.0789 134.04 67.3493 137.769L12.665 83.085Z" fill="#76D0FC"/>
</svg>
