<svg width="137" height="100" viewBox="0 0 137 100" fill="none" xmlns="http://www.w3.org/2000/svg">
<path d="M106.031 -43.5622C105.937 -43.491 105.87 -43.3921 105.788 -43.3087C90.9354 -61.5107 71.2484 -60.0905 59.1061 -51.1656C51.1841 -45.3428 46.9028 -36.3344 46.0818 -28.7038C38.4031 -27.8868 29.3401 -23.6329 23.4814 -15.7594C14.5014 -3.69154 13.0724 15.8747 31.3877 30.6377C31.3037 30.7192 31.2042 30.7852 31.1326 30.8789C25.6724 38.0334 23.2241 54.6429 34.4638 66.0384C51.0533 82.8581 68.1041 76.361 81.0593 80.646C104.026 88.2419 121.211 81.4656 138.643 63.6527L139.009 63.289C156.932 45.9636 163.75 28.8842 156.107 6.05853C151.796 -6.81728 158.333 -23.7635 141.41 -40.2513C129.944 -51.4222 113.231 -48.9878 106.032 -43.5632L106.031 -43.5622Z" fill="#FFCA62"/>
<path d="M77.1653 46.7347C77.217 38.2925 68.883 31.4152 58.5507 31.3738C48.2184 31.3323 39.8004 38.1425 39.7487 46.5847C39.6969 55.0268 48.031 61.9041 58.3633 61.9456C68.6956 61.987 77.1135 55.1768 77.1653 46.7347Z" fill="white"/>
<path d="M66.4962 11.8323C70.2304 4.24192 65.7342 -5.55554 56.4536 -10.051C47.1731 -14.5464 36.6226 -12.0375 32.8884 -4.44717C29.1542 3.14317 33.6504 12.9406 42.931 17.4361C52.2115 21.9315 62.762 19.4226 66.4962 11.8323Z" fill="white"/>
<path d="M137.304 -16.4882C137.263 -26.7572 130.343 -35.0401 121.849 -34.9887C113.354 -34.9373 106.502 -26.571 106.544 -16.3021C106.585 -6.03312 113.505 2.24984 121.999 2.19844C130.494 2.14704 137.346 -6.21925 137.304 -16.4882Z" fill="white"/>
<path d="M92.4992 -31.8358C87.9761 -41.0594 78.1182 -45.5281 70.481 -41.8168C62.8439 -38.1055 60.3194 -27.6197 64.8426 -18.3961C69.3657 -9.17241 79.2236 -4.70375 86.8608 -8.41502C94.498 -12.1263 97.0224 -22.6121 92.4992 -31.8358Z" fill="white"/>
<path d="M128.353 9.12406C121.188 5.78546 116.524 8.5699 106.567 6.05261C100.401 4.49405 88.3818 -4.46278 79.3844 4.39711C70.4699 13.3372 79.4819 25.2847 81.0501 31.4129C83.5828 41.309 80.7812 45.9447 84.1404 53.0654C85.9853 56.9767 89.4382 58.6523 92.6133 59.4356C98.0968 60.79 106.044 57.0757 110.541 48.5601C112.756 44.3657 115.637 41.2598 116.043 40.8311C116.475 40.4261 119.601 37.5629 123.82 35.3627C132.388 30.8931 136.124 22.996 134.762 17.5451C133.973 14.3884 132.288 10.9577 128.353 9.12406Z" fill="white"/>
</svg>
