<svg width="20" height="20" viewBox="0 0 20 20" fill="currentColor" xmlns="http://www.w3.org/2000/svg">
<path fill-rule="evenodd" clip-rule="evenodd" d="M9 2C5.13401 2 2 5.13401 2 9C2 12.866 5.13401 16 9 16C10.8844 16 12.5949 15.2554 13.8533 14.0443C13.8806 14.0085 13.9106 13.9741 13.9433 13.9413C13.9759 13.9087 14.0103 13.8788 14.046 13.8516C15.2561 12.5934 16 10.8836 16 9C16 5.13401 12.866 2 9 2ZM16.0328 14.6166C17.2639 13.0771 18 11.1245 18 9C18 4.02944 13.9706 0 9 0C4.02944 0 0 4.02944 0 9C0 13.9706 4.02944 18 9 18C11.1255 18 13.0789 17.2632 14.6188 16.031L18.2933 19.7055C18.6838 20.0961 19.317 20.0961 19.7075 19.7055C20.098 19.315 20.098 18.6819 19.7075 18.2913L16.0328 14.6166Z" fill="#AEB1C4"/>
</svg>
