<svg width="24" height="24" viewBox="0 0 24 24" fill="none" xmlns="http://www.w3.org/2000/svg">
<path d="M13.4119 12.0002L19.7119 5.71019C19.9002 5.52188 20.006 5.26649 20.006 5.00019C20.006 4.73388 19.9002 4.47849 19.7119 4.29019C19.5236 4.10188 19.2682 3.99609 19.0019 3.99609C18.7356 3.99609 18.4802 4.10188 18.2919 4.29019L12.0019 10.5902L5.71189 4.29019C5.52359 4.10188 5.26819 3.99609 5.00189 3.99609C4.73559 3.99609 4.4802 4.10188 4.29189 4.29019C4.10359 4.47849 3.9978 4.73388 3.9978 5.00019C3.9978 5.26649 4.10359 5.52188 4.29189 5.71019L10.5919 12.0002L4.29189 18.2902C4.19816 18.3831 4.12377 18.4937 4.073 18.6156C4.02223 18.7375 3.99609 18.8682 3.99609 19.0002C3.99609 19.1322 4.02223 19.2629 4.073 19.3848C4.12377 19.5066 4.19816 19.6172 4.29189 19.7102C4.38486 19.8039 4.49546 19.8783 4.61732 19.9291C4.73917 19.9798 4.86988 20.006 5.00189 20.006C5.1339 20.006 5.26461 19.9798 5.38647 19.9291C5.50833 19.8783 5.61893 19.8039 5.71189 19.7102L12.0019 13.4102L18.2919 19.7102C18.3849 19.8039 18.4955 19.8783 18.6173 19.9291C18.7392 19.9798 18.8699 20.006 19.0019 20.006C19.1339 20.006 19.2646 19.9798 19.3865 19.9291C19.5083 19.8783 19.6189 19.8039 19.7119 19.7102C19.8056 19.6172 19.88 19.5066 19.9308 19.3848C19.9816 19.2629 20.0077 19.1322 20.0077 19.0002C20.0077 18.8682 19.9816 18.7375 19.9308 18.6156C19.88 18.4937 19.8056 18.3831 19.7119 18.2902L13.4119 12.0002Z" fill="#3A3B46"/>
</svg>
