<svg width="11" height="14" viewBox="0 0 11 14" fill="none" xmlns="http://www.w3.org/2000/svg">
<path d="M5.5013 0.333496C4.08681 0.333496 2.73026 0.895399 1.73007 1.89559C0.729872 2.89579 0.167969 4.25234 0.167969 5.66683C0.167969 9.26683 4.86797 13.3335 5.06797 13.5068C5.18872 13.6101 5.3424 13.6669 5.5013 13.6669C5.6602 13.6669 5.81388 13.6101 5.93463 13.5068C6.16797 13.3335 10.8346 9.26683 10.8346 5.66683C10.8346 4.25234 10.2727 2.89579 9.27254 1.89559C8.27234 0.895399 6.91579 0.333496 5.5013 0.333496ZM5.5013 12.1002C4.0813 10.7668 1.5013 7.8935 1.5013 5.66683C1.5013 4.60596 1.92273 3.58855 2.67287 2.8384C3.42302 2.08826 4.44044 1.66683 5.5013 1.66683C6.56217 1.66683 7.57958 2.08826 8.32973 2.8384C9.07987 3.58855 9.5013 4.60596 9.5013 5.66683C9.5013 7.8935 6.9213 10.7735 5.5013 12.1002ZM5.5013 3.00016C4.97389 3.00016 4.45831 3.15656 4.01978 3.44958C3.58125 3.74259 3.23946 4.15907 3.03762 4.64634C2.83579 5.13361 2.78298 5.66979 2.88587 6.18707C2.98877 6.70435 3.24274 7.17951 3.61568 7.55245C3.98862 7.92539 4.46378 8.17936 4.98106 8.28226C5.49834 8.38515 6.03452 8.33234 6.52179 8.13051C7.00906 7.92868 7.42554 7.58688 7.71855 7.14835C8.01157 6.70982 8.16797 6.19425 8.16797 5.66683C8.16797 4.95959 7.88702 4.28131 7.38692 3.78121C6.88682 3.28111 6.20855 3.00016 5.5013 3.00016ZM5.5013 7.00016C5.23759 7.00016 4.97981 6.92196 4.76054 6.77546C4.54128 6.62895 4.37038 6.42071 4.26946 6.17707C4.16855 5.93344 4.14214 5.66535 4.19359 5.40671C4.24504 5.14807 4.37202 4.91049 4.55849 4.72402C4.74496 4.53755 4.98254 4.41056 5.24118 4.35912C5.49982 4.30767 5.76791 4.33407 6.01155 4.43499C6.25518 4.53591 6.46342 4.7068 6.60993 4.92607C6.75644 5.14533 6.83463 5.40312 6.83463 5.66683C6.83463 6.02045 6.69416 6.35959 6.44411 6.60964C6.19406 6.85969 5.85492 7.00016 5.5013 7.00016Z" fill="#AEB1C4"/>
</svg>
